<?xml version="1.0" encoding="utf-8"?>
<!-- Generator: Adobe Illustrator 18.0.0, SVG Export Plug-In . SVG Version: 6.00 Build 0)  -->
<!DOCTYPE svg PUBLIC "-//W3C//DTD SVG 1.1 Tiny//EN" "http://www.w3.org/Graphics/SVG/1.1/DTD/svg11-tiny.dtd">
<svg version="1.1" baseProfile="tiny" id="Camada_1"
	 xmlns="http://www.w3.org/2000/svg" xmlns:xlink="http://www.w3.org/1999/xlink" x="0px" y="0px" viewBox="0 0 39 39.1"
	 xml:space="preserve">
<circle fill-rule="evenodd" fill="#FFFFFF" cx="20.2" cy="19.9" r="16.1"/>
<path fill-rule="evenodd" fill="#0B3059" d="M32.2,25.2c-0.6-2.3-2.9-4-5.4-4c-2.5,0-4.5,1.7-5.2,3.9c-1.4-2.4-4-3.9-6.9-3.9
	c-3.4,0-6.3,2.1-7.5,5.1c-0.4,1.4,0,2.4,0.3,2.6c2.9,3.5,6.7,5.8,11.9,5.8c5.3,0,9.9-2.7,12.6-6.7L32.2,25.2 M21.5,29.3v-0.7h0
	c-0.3-3.4-3.2-6-6.7-6c-3.2,0-5.8,2.2-6.5,5.2c2.6,3.4,6.6,5.6,11.2,5.6c0.7,0,1.4-0.1,2-0.1v-1.9l0,0V29.3L21.5,29.3L21.5,29.3
	C21.5,29.3,21.5,29.3,21.5,29.3z M30.9,27.2v-1.3h-0.1c-0.3-1.9-2-3.4-4-3.4c-1.8,0-3.2,1.1-3.8,2.7h-0.2v4c0,0,0,0,0,0V32l0,0v0.9
	c3.4-0.8,6.3-2.9,8.2-5.6H30.9z M26.8,19.9c-2.2,0-4-1.8-4-4c0-2.2,1.8-4,4-4c2.2,0,4,1.8,4,4C30.9,18.1,29.1,19.9,26.8,19.9z
	 M26.8,13.1c-1.5,0-2.7,1.2-2.7,2.7c0,1.5,1.2,2.7,2.7,2.7s2.7-1.2,2.7-2.7C29.5,14.3,28.3,13.1,26.8,13.1z M14.7,19.9
	c-3.3,0-6-2.7-6-6c0-3.3,2.7-6,6-6c3.3,0,6,2.7,6,6C20.8,17.2,18.1,19.9,14.7,19.9z M14.7,9.1c-2.6,0-4.7,2.1-4.7,4.7
	c0,2.6,2.1,4.7,4.7,4.7c2.6,0,4.7-2.1,4.7-4.7C19.4,11.2,17.3,9.1,14.7,9.1z"/>
</svg>
